<svg xmlns="http://www.w3.org/2000/svg" version="1.1" xmlns:xlink="http://www.w3.org/1999/xlink" width="283.46" height="283.46"><svg id="SvgjsSvg1152" xmlns="http://www.w3.org/2000/svg" version="1.1" viewBox="0 0 283.46 283.46">
  <!-- Generator: Adobe Illustrator 29.6.1, SVG Export Plug-In . SVG Version: 2.1.1 Build 9)  -->
  <defs>
    <style>
      .st0 {
        fill: #231f20;
      }

      .st1 {
        fill: #fff;
      }

      .st2 {
        fill: #b82025;
      }
    </style>
  </defs>
  <rect class="st0" x="0" width="283.46" height="283.46"></rect>
  <g>
    <path class="st1" d="M170.01,97.28v-12.65s-5.19,4.48-5.19,4.48c-12.81,10.79-16.12,28.61-7.98,42.34.39.68,1.19,1.1,2.06,1.1h10.81c-9.54-9.86-9.42-25.54.29-35.28h0Z"></path>
    <path class="st1" d="M191.38,123.74c-11.82-.16-21.37-8.53-21.37-18.78v-.4c-5.18,8.89-3.02,20.46,5.28,27.43.43.37,1.02.58,1.63.58h17.28c.93,0,1.77-.49,2.13-1.23.36-.74.16-1.6-.5-2.17-1.84-1.59-3.33-3.43-4.45-5.42h0Z"></path>
    <path class="st1" d="M225.44,67.25c-.78-.67-1.99-.78-2.91-.25l-24.15,13.93c.24.19.48.39.71.59l10.55,9.12,16.09-20.88c.61-.79.49-1.84-.29-2.51Z"></path>
    <path class="st1" d="M195.83,84.33c-2.48-2.15-5.52-3.63-8.84-4.35,2.81-2.31,4.57-5.57,4.57-9.18v-4.27c0-1.1-1.03-1.99-2.31-1.99-8.1,0-14.64,5.67-14.64,12.67v27.76c0,8.16,7.68,14.8,17.12,14.8h6.45l5.71,4.94c2.82,2.44,7.42,2.44,10.24,0l9.06-7.84c2.83-2.45,2.83-6.41,0-8.86l-27.36-23.67ZM192.96,101.61c-3.99,0-7.24-2.81-7.24-6.26,0-1.1,1.03-1.99,2.3-1.99s2.3.89,2.3,1.99c0,1.26,1.18,2.28,2.63,2.28,3.05.1,3.05,3.89,0,3.99Z"></path>
  </g>
  <g id="SvgjsG1151">
    <g>
      <path class="st1" d="M66.97,170.85c.18-.17.34-.34.49-.52l2.46,2.27c1.59-2.45,3.61-4.63,5.97-6.45l-1.95-1.8c.2-.14.39-.29.58-.46,2.38-2.19,2.38-5.76,0-7.96-2.39-2.21-6.26-2.2-8.64,0-1.62,1.5-2.15,3.62-1.56,5.54-2.07-.54-4.36-.07-5.99,1.43-2.39,2.21-2.39,5.77,0,7.98,2.38,2.2,6.24,2.2,8.64,0Z"></path>
      <path class="st1" d="M112.84,164.34l-1.96,1.81c2.36,1.82,4.39,4,5.98,6.45l2.46-2.27c.15.18.31.36.49.52,2.39,2.21,6.25,2.21,8.64,0,2.38-2.2,2.38-5.76,0-7.97-1.62-1.5-3.93-1.97-5.99-1.43.58-1.9.06-4.04-1.56-5.54-2.38-2.19-6.24-2.2-8.63,0-2.39,2.21-2.38,5.78,0,7.97.18.17.38.32.57.46h0Z"></path>
      <path class="st1" d="M119.83,205.69c-.18.17-.35.35-.5.53l-4.94-4.56c-1.3,1.43-2.77,2.75-4.44,3.92-.83.59-1.53,1.27-2.08,2.03l4.97,4.59c-.2.14-.39.29-.57.46-2.39,2.21-2.39,5.77,0,7.98,2.38,2.2,6.24,2.2,8.64,0,1.62-1.5,2.14-3.63,1.55-5.53,2.06.54,4.37.06,6-1.44,2.38-2.19,2.38-5.76,0-7.96-2.39-2.21-6.26-2.2-8.64,0h0Z"></path>
      <path class="st1" d="M77.01,205.7c-1.72-1.19-3.27-2.55-4.61-4.03l-4.93,4.55c-.15-.18-.32-.36-.5-.53-2.38-2.19-6.24-2.2-8.63,0-2.39,2.21-2.38,5.78,0,7.97,1.62,1.5,3.93,1.98,6,1.44-.59,1.91-.07,4.03,1.55,5.53,2.39,2.21,6.25,2.21,8.64,0,2.38-2.2,2.38-5.76,0-7.97-.18-.17-.37-.32-.57-.46l4.98-4.6c-.52-.73-1.17-1.38-1.93-1.91h0Z"></path>
      <path class="st1" d="M109,204.43c6.98-4.91,11.18-13.04,9.95-22.01-1.47-10.77-10.94-19.35-22.63-20.54-15.54-1.58-28.69,9.6-28.69,23.63,0,7.79,4.05,14.69,10.31,19.03,2.58,1.78,4.01,4.64,4.01,7.61v2.67c0,2.07,1.82,3.75,4.06,3.75h.58v-3.13c0-.73.64-1.32,1.43-1.32s1.43.59,1.43,1.32v3.13h2.51v-3.13c0-.73.64-1.32,1.43-1.32s1.43.59,1.43,1.32v3.13h2.51v-3.13c0-.73.64-1.32,1.43-1.32s1.43.59,1.43,1.32v3.13h.58c2.24,0,4.06-1.68,4.06-3.75v-2.83c0-2.99,1.58-5.74,4.16-7.56h0ZM82.22,196.38c-3.73,0-6.75-2.79-6.75-6.23s3.02-6.23,6.75-6.23,8.12.24,8.12,3.68-4.39,8.78-8.12,8.78h0ZM96.1,206.39h-5.41c-1.32,0-2.12-1.36-1.39-2.38l2.7-3.8c.66-.92,2.12-.92,2.78,0l2.71,3.8c.73,1.02-.07,2.38-1.39,2.38ZM104.57,196.38c-3.73,0-8.12-5.33-8.12-8.78s4.39-3.68,8.12-3.68,6.75,2.79,6.75,6.23-3.02,6.23-6.75,6.23h0Z"></path>
    </g>
  </g>
  <g>
    <path class="st1" d="M98.4,73.06c.52-1.9,1.98-3.18,3.64-3.18,1.19,0,2.16-1.17,2.16-2.62s-.97-2.62-2.16-2.62c-3.51,0-6.62,2.71-7.73,6.75l-.9,3.29-.9-3.29c-1.11-4.04-4.22-6.75-7.73-6.75-1.19,0-2.16,1.17-2.16,2.62s.97,2.62,2.16,2.62c1.65,0,3.11,1.28,3.64,3.18l2.65,9.62c-1.21,2.64-4.12,9.87-4.12,18.6,0,10.76,4.47,19.36,4.66,19.72.4.75,1.08,1.21,1.82,1.21s1.42-.45,1.82-1.21c.19-.36,4.66-8.97,4.66-19.72,0-8.73-2.91-15.97-4.12-18.6l2.65-9.62Z"></path>
    <path class="st1" d="M80.27,106.51c-6.15,0-11.49,5.31-12.7,12.62l-1.72,10.42c-.13.77.04,1.57.45,2.17.41.61,1.02.96,1.67.96h4.02c6.15,0,11.49-5.31,12.7-12.62l.5-3.03c-.93-2.85-1.81-6.45-2.26-10.52h-2.66Z"></path>
    <path class="st1" d="M82.6,101.28c0-4.41.65-8.46,1.49-11.89-3.36-13.58-13.51-23.46-25.2-24.63-.6-.04-1.2.19-1.64.68-.44.5-.7,1.19-.7,1.92v18.21c0,8.66,5.96,15.7,13.1,15.7h12.96Z"></path>
    <path class="st1" d="M127.91,64.76c-11.69,1.17-21.85,11.06-25.2,24.63.84,3.43,1.49,7.47,1.49,11.89h12.96c7.14,0,13.1-7.04,13.1-15.7v-18.21c0-.73-.25-1.43-.7-1.92-.44-.5-1.04-.73-1.64-.68h0Z"></path>
    <path class="st1" d="M106.53,106.51h-2.65c-.45,4.06-1.34,7.66-2.26,10.52l.5,3.03c1.21,7.31,6.55,12.62,12.7,12.62h4.02c.65,0,1.26-.35,1.67-.96.41-.61.57-1.4.45-2.17l-1.72-10.42c-1.21-7.31-6.55-12.62-12.7-12.62Z"></path>
  </g>
  <path class="st2" d="M189.27,222.29c-.37,0-.75-.1-1.08-.31-.36-.22-8.98-5.56-17.72-13.61-5.18-4.77-9.32-9.5-12.29-14.06-3.85-5.9-5.79-11.58-5.76-16.87.04-6.16,2.1-11.95,5.82-16.31,3.78-4.43,8.82-6.87,14.2-6.87,6.89,0,13.2,4.12,16.83,10.65,3.63-6.53,9.93-10.65,16.83-10.65,5.08,0,9.93,2.2,13.65,6.2,4.09,4.39,6.41,10.59,6.37,17.01-.03,5.28-2,10.95-5.86,16.84-2.98,4.56-7.11,9.29-12.28,14.05-8.71,8.05-17.27,13.39-17.63,13.61-.34.21-.71.31-1.09.31h0Z"></path>
</svg><style>@media (prefers-color-scheme: light) { :root { filter: none; } }
@media (prefers-color-scheme: dark) { :root { filter: none; } }
</style></svg>